<?xml version="1.0" standalone="no"?>
<!DOCTYPE svg PUBLIC "-//W3C//DTD SVG 20010904//EN"
 "http://www.w3.org/TR/2001/REC-SVG-20010904/DTD/svg10.dtd">
<svg version="1.0" xmlns="http://www.w3.org/2000/svg"
 width="480.000000pt" height="480.000000pt" viewBox="0 0 480.000000 480.000000"
 preserveAspectRatio="xMidYMid meet">
<metadata>
Created by potrace 1.11, written by Peter Selinger 2001-2013
</metadata>
<g transform="translate(0.000000,480.000000) scale(0.100000,-0.100000)"
fill="#000000" stroke="none">
<path d="M3485 2606 c-131 -30 -228 -80 -314 -160 -70 -66 -114 -136 -147
-233 -23 -66 -27 -95 -28 -188 0 -185 48 -316 161 -436 104 -109 196 -164 518
-305 121 -53 198 -95 233 -127 80 -74 86 -216 12 -292 -52 -54 -120 -78 -231
-83 -185 -8 -308 52 -424 210 l-42 57 -174 -101 c-96 -55 -178 -104 -183 -108
-13 -13 80 -149 149 -216 165 -162 388 -244 664 -244 197 0 356 40 479 120
119 76 196 176 239 305 22 68 26 98 26 200 0 195 -42 311 -159 435 -104 110
-217 176 -539 319 -221 97 -275 146 -283 250 -6 78 11 123 59 165 65 55 151
69 250 40 42 -12 66 -29 109 -73 31 -31 63 -67 71 -80 l15 -24 172 109 c94 60
171 113 172 117 1 20 -84 128 -146 187 -74 69 -160 117 -260 145 -82 23 -319
29 -399 11z"/>
<path d="M2165 2588 c-3 -7 -6 -382 -7 -833 l-3 -821 -26 -49 c-32 -64 -86
-95 -175 -103 -123 -10 -203 37 -284 164 l-41 65 -27 -17 c-15 -10 -94 -58
-177 -107 -82 -50 -152 -92 -155 -94 -2 -2 8 -28 23 -56 91 -174 262 -299 467
-342 92 -19 270 -19 368 0 189 38 336 148 412 307 71 150 70 137 70 1068 l0
830 -220 0 c-167 0 -222 -3 -225 -12z"/>
</g>
</svg>
